<svg width="24" height="24" viewBox="0 0 24 24" fill="none" xmlns="http://www.w3.org/2000/svg">
<path d="M12 16.475C13.65 15.1417 14.8958 13.8583 15.7375 12.625C16.5792 11.3917 17 10.2333 17 9.14998C17 7.64998 16.5333 6.41665 15.6 5.44998C14.6667 4.48332 13.4667 3.99998 12 3.99998C10.5333 3.99998 9.33333 4.48332 8.4 5.44998C7.46667 6.41665 7 7.64998 7 9.14998C7 10.2333 7.42083 11.3917 8.2625 12.625C9.10417 13.8583 10.35 15.1417 12 16.475ZM12 19C9.65 17.2667 7.89583 15.5833 6.7375 13.95C5.57917 12.3167 5 10.7167 5 9.14998C5 7.06665 5.65 5.35415 6.95 4.01248C8.25 2.67082 9.93333 1.99998 12 1.99998C14.0667 1.99998 15.75 2.67082 17.05 4.01248C18.35 5.35415 19 7.06665 19 9.14998C19 10.7167 18.4208 12.3167 17.2625 13.95C16.1042 15.5833 14.35 17.2667 12 19ZM12 11C12.55 11 13.0208 10.8042 13.4125 10.4125C13.8042 10.0208 14 9.54998 14 8.99998C14 8.44999 13.8042 7.97915 13.4125 7.58748C13.0208 7.19582 12.55 6.99998 12 6.99998C11.45 6.99998 10.9792 7.19582 10.5875 7.58748C10.1958 7.97915 10 8.44999 10 8.99998C10 9.54998 10.1958 10.0208 10.5875 10.4125C10.9792 10.8042 11.45 11 12 11ZM5 22V20H19V22H5Z" fill="#141414"/>
</svg>
