<svg width="132" height="35" viewBox="0 0 132 35" fill="none" xmlns="http://www.w3.org/2000/svg">
<path d="M7.992 0.735992V34H0.119995V0.735992H7.992ZM27.096 0.735992L16.488 15.664L27.96 34H18.84L8.232 16.24L18.792 0.735992H27.096Z" fill="#141414"/>
<path d="M50.1851 26.608C50.1851 27.568 50.3131 28.272 50.5691 28.72C50.8571 29.168 51.3051 29.504 51.9131 29.728L50.3291 34.672C48.7611 34.544 47.4811 34.208 46.4891 33.664C45.4971 33.088 44.7291 32.192 44.1851 30.976C42.5211 33.536 39.9611 34.816 36.5051 34.816C33.9771 34.816 31.9611 34.08 30.4571 32.608C28.9531 31.136 28.2011 29.216 28.2011 26.848C28.2011 24.064 29.2251 21.936 31.2731 20.464C33.3211 18.992 36.2811 18.256 40.1531 18.256H42.7451V17.152C42.7451 15.648 42.4251 14.624 41.7851 14.08C41.1451 13.504 40.0251 13.216 38.4251 13.216C37.5931 13.216 36.5851 13.344 35.4011 13.6C34.2171 13.824 33.0011 14.144 31.7531 14.56L30.0251 9.56799C31.6251 8.95999 33.2571 8.49599 34.9211 8.17599C36.6171 7.85599 38.1851 7.69599 39.6251 7.69599C43.2731 7.69599 45.9451 8.44799 47.6411 9.95199C49.3371 11.456 50.1851 13.712 50.1851 16.72V26.608ZM38.7131 29.392C40.4411 29.392 41.7851 28.576 42.7451 26.944V22.432H40.8731C39.1451 22.432 37.8491 22.736 36.9851 23.344C36.1531 23.952 35.7371 24.896 35.7371 26.176C35.7371 27.2 35.9931 28 36.5051 28.576C37.0491 29.12 37.7851 29.392 38.7131 29.392Z" fill="#141414"/>
<path d="M77.73 34H71.154L70.818 30.784C68.962 33.472 66.386 34.816 63.09 34.816C60.754 34.816 58.978 34.112 57.762 32.704C56.578 31.296 55.986 29.328 55.986 26.8V8.51199H63.57V25.84C63.57 27.088 63.762 27.968 64.146 28.48C64.562 28.96 65.186 29.2 66.018 29.2C67.618 29.2 68.994 28.208 70.146 26.224V8.51199H77.73V34Z" fill="#141414"/>
<path d="M103.951 26.608C103.951 27.568 104.079 28.272 104.335 28.72C104.623 29.168 105.071 29.504 105.679 29.728L104.095 34.672C102.527 34.544 101.247 34.208 100.255 33.664C99.2627 33.088 98.4947 32.192 97.9507 30.976C96.2867 33.536 93.7267 34.816 90.2707 34.816C87.7427 34.816 85.7267 34.08 84.2227 32.608C82.7187 31.136 81.9667 29.216 81.9667 26.848C81.9667 24.064 82.9907 21.936 85.0387 20.464C87.0867 18.992 90.0467 18.256 93.9187 18.256H96.5107V17.152C96.5107 15.648 96.1907 14.624 95.5507 14.08C94.9107 13.504 93.7907 13.216 92.1907 13.216C91.3587 13.216 90.3507 13.344 89.1667 13.6C87.9827 13.824 86.7667 14.144 85.5187 14.56L83.7907 9.56799C85.3907 8.95999 87.0227 8.49599 88.6867 8.17599C90.3827 7.85599 91.9507 7.69599 93.3907 7.69599C97.0387 7.69599 99.7107 8.44799 101.407 9.95199C103.103 11.456 103.951 13.712 103.951 16.72V26.608ZM92.4787 29.392C94.2067 29.392 95.5507 28.576 96.5107 26.944V22.432H94.6387C92.9107 22.432 91.6147 22.736 90.7507 23.344C89.9187 23.952 89.5027 24.896 89.5027 26.176C89.5027 27.2 89.7587 28 90.2707 28.576C90.8147 29.12 91.5507 29.392 92.4787 29.392Z" fill="#141414"/>
<path d="M124.92 7.69599C127.128 7.69599 128.856 8.36799 130.104 9.71199C131.352 11.056 131.976 12.944 131.976 15.376V34H124.392V16.672C124.392 15.392 124.184 14.512 123.768 14.032C123.384 13.52 122.792 13.264 121.992 13.264C120.456 13.264 118.984 14.368 117.576 16.576V34H109.992V8.51199H116.616L117.144 11.536C118.232 10.256 119.4 9.29599 120.648 8.65599C121.928 8.01599 123.352 7.69599 124.92 7.69599Z" fill="#141414"/>
</svg>
